<?xml version="1.0" standalone="no"?>
<!DOCTYPE svg PUBLIC "-//W3C//DTD SVG 20010904//EN"
 "http://www.w3.org/TR/2001/REC-SVG-20010904/DTD/svg10.dtd">
<svg version="1.0" xmlns="http://www.w3.org/2000/svg"
 width="300.000000pt" height="88.000000pt" viewBox="0 0 300.000000 88.000000"
 preserveAspectRatio="xMidYMid meet">

<g transform="translate(0.000000,88.000000) scale(0.100000,-0.100000)"
fill="#000000" stroke="none">
<path d="M10 440 l0 -430 1490 0 1490 0 0 430 0 430 -1490 0 -1490 0 0 -430z
m2965 0 l0 -415 -1475 0 -1475 0 -3 405 c-1 223 0 411 3 418 3 10 303 12 1477
10 l1473 -3 0 -415z"/>
<path d="M170 721 c24 -7 25 -10 28 -98 3 -88 2 -92 -20 -96 l-23 -4 23 -2
c22 -1 23 -3 20 -98 -3 -93 -4 -98 -25 -101 -13 -2 -23 -8 -23 -13 0 -6 55 -8
138 -7 l137 3 3 38 c2 21 -1 37 -7 37 -6 0 -11 -13 -11 -30 l0 -30 -101 0
c-100 0 -101 0 -95 23 3 12 6 57 6 99 l0 77 68 4 67 3 -67 2 -68 2 0 90 0 90
94 0 95 0 4 -32 c3 -29 4 -27 5 10 l2 42 -137 -1 c-76 -1 -127 -4 -113 -8z"/>
<path d="M1626 702 c-3 -6 -1 -14 5 -17 15 -10 25 3 12 16 -7 7 -13 7 -17 1z"/>
<path d="M2470 695 c0 -8 5 -15 10 -15 6 0 10 7 10 15 0 8 -4 15 -10 15 -5 0
-10 -7 -10 -15z"/>
<path d="M800 631 c0 -23 -5 -31 -22 -34 l-23 -4 23 -2 c22 -1 22 -4 22 -124
0 -144 5 -156 70 -162 l45 -5 -37 13 c-20 7 -42 17 -48 23 -7 7 -10 54 -8 130
l3 119 38 -2 c20 -1 37 2 37 7 0 6 -18 10 -40 10 -38 0 -40 2 -40 30 0 17 -4
30 -10 30 -5 0 -10 -13 -10 -29z"/>
<path d="M522 580 c-27 -26 -29 -80 -4 -103 9 -8 44 -22 77 -31 67 -17 99 -46
89 -80 -12 -39 -32 -51 -90 -51 -50 0 -58 3 -80 30 -17 22 -24 25 -24 13 0 -9
12 -26 28 -38 23 -18 37 -21 86 -18 66 5 96 29 96 76 0 39 -26 60 -101 82 -88
27 -113 66 -69 110 30 30 90 27 129 -6 34 -28 43 -16 11 16 -28 28 -117 28
-148 0z"/>
<path d="M998 582 c-42 -25 -34 -35 9 -12 41 22 93 26 123 10 17 -9 40 -65 40
-96 0 -7 -30 -14 -72 -19 -77 -7 -122 -24 -132 -50 -12 -33 -5 -67 20 -92 22
-22 32 -25 75 -21 32 3 58 13 72 27 30 27 37 27 37 -4 0 -21 5 -25 28 -24 26
0 26 1 5 9 -22 9 -23 14 -23 123 0 100 -3 117 -21 141 -18 23 -28 26 -77 26
-36 0 -67 -7 -84 -18z m172 -171 c0 -31 -6 -44 -30 -65 -80 -67 -178 -31 -156
57 8 33 40 46 119 46 l67 1 0 -39z"/>
<path d="M1306 569 c-31 -37 -34 -81 -7 -125 18 -29 18 -31 0 -53 -24 -30 -24
-48 0 -63 19 -12 19 -13 -4 -34 -54 -50 -38 -119 32 -143 34 -12 50 -13 97 -2
102 23 148 100 91 156 -21 22 -33 25 -104 25 -92 0 -111 5 -111 30 0 32 28 51
65 44 43 -8 100 11 120 39 17 24 20 102 5 112 -19 12 -10 23 28 33 26 7 30 10
14 11 -13 1 -33 -4 -44 -10 -14 -8 -23 -8 -31 0 -6 6 -37 11 -68 11 -52 0 -60
-3 -83 -31z m138 10 c30 -14 51 -60 42 -94 -11 -45 -41 -65 -93 -65 -54 1 -78
14 -93 54 -30 79 59 143 144 105z m46 -272 c28 -14 39 -62 21 -95 -27 -51
-166 -71 -209 -32 -32 30 -29 75 7 111 26 26 36 29 93 29 35 0 74 -6 88 -13z"/>
<path d="M1600 591 l25 -7 0 -129 c0 -127 0 -130 -23 -133 -40 -6 -12 -22 36
-21 26 1 38 4 27 6 -19 3 -20 12 -20 146 l0 142 -35 2 c-29 2 -31 1 -10 -6z"/>
<path d="M1788 584 c-16 -8 -28 -19 -28 -24 0 -5 15 -1 33 10 72 45 157 10
157 -64 l0 -34 -75 -7 c-95 -9 -125 -29 -125 -86 0 -54 27 -79 84 -79 29 0 55
8 80 25 l36 24 0 -24 c0 -21 5 -25 28 -24 16 1 20 3 10 6 -16 4 -18 18 -18
107 0 111 -11 161 -40 176 -28 15 -111 11 -142 -6z m162 -172 c0 -50 -41 -91
-98 -99 -34 -5 -44 -1 -66 20 -33 33 -33 61 -1 92 21 22 33 25 95 25 l70 0 0
-38z"/>
<path d="M2070 591 c24 -7 25 -9 28 -116 3 -130 -1 -155 -28 -155 -11 0 -20
-4 -20 -10 0 -6 24 -10 53 -9 34 1 44 3 29 7 -13 4 -23 10 -23 15 1 4 1 53 1
110 0 102 0 103 29 125 16 11 40 24 54 27 22 6 26 3 29 -22 l3 -28 6 33 c5 29
3 32 -21 32 -15 0 -44 -11 -64 -25 l-36 -24 0 24 c0 22 -4 25 -32 24 -30 -1
-31 -2 -8 -8z"/>
<path d="M2450 591 c24 -7 25 -10 28 -106 4 -128 -3 -165 -28 -165 -11 0 -20
-4 -20 -10 0 -6 23 -9 53 -9 28 1 41 4 27 6 l-25 4 3 144 3 145 -33 -1 c-30
-1 -31 -2 -8 -8z"/>
<path d="M2648 577 c-56 -45 -72 -130 -39 -204 22 -48 62 -73 118 -73 86 0
138 69 131 173 -4 54 -8 63 -41 93 -32 30 -44 34 -89 34 -40 0 -60 -6 -80 -23z
m163 -25 c33 -36 43 -89 29 -143 -22 -80 -93 -117 -163 -84 -88 41 -91 202 -5
252 38 22 108 10 139 -25z"/>
<path d="M2325 319 c-10 -15 3 -25 16 -12 7 7 7 13 1 17 -6 3 -14 1 -17 -5z"/>
</g>
</svg>
